HIERARCHY
ROOT Hips
{
	OFFSET 0.000000 0.000000 0.000000
	CHANNELS 6 Xposition Yposition Zposition Zrotation Yrotation Xrotation 
	JOINT LHipJoint
	{
		OFFSET 0.000000 0.000000 0.000000
		CHANNELS 3 Zrotation Yrotation Xrotation
		JOINT LeftUpLeg
		{
			OFFSET 1.363060 -1.794630 0.839290
			CHANNELS 3 Zrotation Yrotation Xrotation
			JOINT LeftLeg
			{
				OFFSET 2.448110 -6.726130 0.000000
				CHANNELS 3 Zrotation Yrotation Xrotation
				JOINT LeftFoot
				{
					OFFSET 2.562200 -7.039590 0.000000
					CHANNELS 3 Zrotation Yrotation Xrotation
					JOINT LeftToeBase
					{
						OFFSET 0.157640 -0.433110 2.322550
						CHANNELS 3 Zrotation Yrotation Xrotation
						End Site
						{
							OFFSET 0.000000 0.000000 0.000000
						}
					}
				}
			}
		}
	}
	JOINT RHipJoint
	{
		OFFSET 0.000000 0.000000 0.000000
		CHANNELS 3 Zrotation Yrotation Xrotation
		JOINT RightUpLeg
		{
			OFFSET -1.305520 -1.794630 0.839290
			CHANNELS 3 Zrotation Yrotation Xrotation
			JOINT RightLeg
			{
				OFFSET -2.542530 -6.985550 0.000000
				CHANNELS 3 Zrotation Yrotation Xrotation
				JOINT RightFoot
				{
					OFFSET -2.568260 -7.056230 0.000000
					CHANNELS 3 Zrotation Yrotation Xrotation
					JOINT RightToeBase
					{
						OFFSET -0.164730 -0.452590 2.363150
						CHANNELS 3 Zrotation Yrotation Xrotation
						End Site
						{
							OFFSET 0.000000 0.000000 0.000000
						}
					}
				}
			}
		}
	}
}
MOTION
Frames: 24
Frame Time: 0.008333
13.816750 16.598021 2.963585 -140.599807 -87.387909 -167.331086 -8.415819 -0.982404 2.570950 -5.139745 -9.510886 -65.341374 -2.038131 -0.375652 23.480575 3.407016 11.441230 -14.333594 -0.531400 -0.000000 -44.114600 7.663670 0.731007 4.072499 4.268758 12.119926 -64.123626 2.948060 0.494893 18.354147 -2.000252 -5.142718 -9.647317 -0.651400 -0.000000 -62.255900
13.805284 16.506033 2.969553 -142.418784 -87.203920 -164.301778 -8.409258 -0.996229 2.670708 -4.969306 -9.805680 -67.976878 -2.020023 -0.114890 25.901234 3.523595 11.400692 -15.397379 -0.746800 -0.000001 -44.074300 7.582638 0.732885 4.291791 3.684972 12.773838 -67.090538 2.806549 0.167039 21.297426 -2.152456 -5.225411 -10.864052 -0.504200 0.000000 -61.913600
13.793945 16.405031 2.974856 -144.169210 -87.044432 -161.342099 -8.406434 -1.016801 2.770178 -4.795245 -10.116986 -70.670600 -1.992083 0.168322 28.443191 3.641196 11.363652 -16.486119 -0.970500 -0.000000 -44.037900 7.511586 0.745737 4.504539 3.042887 13.384585 -70.123834 2.637623 -0.178604 24.368313 -2.307209 -5.317967 -12.089126 -0.348900 -0.000000 -61.573800
13.782763 16.294751 2.979372 -145.968125 -86.914330 -158.342670 -8.406616 -1.045318 2.872950 -4.608204 -10.458180 -73.410966 -1.949020 0.470326 31.095238 3.763238 11.347815 -17.599594 -1.203899 0.000000 -43.972900 7.450734 0.772628 4.708935 2.345189 13.937497 -73.208480 2.443084 -0.537615 27.551593 -2.462661 -5.419422 -13.321178 -0.185100 -0.000000 -61.229300
13.771589 16.174820 2.983053 -147.913072 -86.819737 -155.208062 -8.408432 -1.083184 2.981401 -4.399148 -10.841842 -76.187652 -1.886156 0.786622 33.847560 3.892565 11.367037 -18.739911 -1.450300 0.000000 -43.847100 7.400342 0.816742 4.902611 1.595529 14.417719 -76.331895 2.225717 -0.906464 30.836968 -2.617414 -5.528099 -14.566360 -0.011700 0.000000 -60.858300
13.760363 16.045051 2.985865 -150.103526 -86.767063 -151.845143 -8.409969 -1.132091 3.096241 -4.162097 -11.276734 -78.987542 -1.800138 1.112402 36.690461 4.030760 11.429746 -19.909485 -1.713000 -0.000000 -43.632600 7.360613 0.880641 5.082881 0.800020 14.810636 -79.476278 1.989008 -1.282266 34.213113 -2.770479 -5.643531 -15.832330 0.173000 0.000001 -60.440400
13.749150 15.905544 2.987857 -152.661871 -86.761801 -148.141937 -8.408933 -1.193895 3.216158 -3.894595 -11.767918 -81.793099 -1.689046 1.442774 39.613515 4.177910 11.539000 -21.109786 -1.995400 0.000000 -43.310900 7.331531 0.966211 5.246692 -0.032495 15.103164 -82.619396 1.736963 -1.662899 37.667355 -2.921115 -5.766094 -17.126965 0.370500 0.000000 -59.957800
13.737842 15.756476 2.989123 -155.746690 -86.808004 -143.947967 -8.403059 -1.270355 3.338711 -3.597184 -12.317316 -84.585351 -1.552489 1.772905 42.604740 4.332592 11.692834 -22.339528 -2.299800 0.000000 -42.876200 7.313337 1.074047 5.391151 -0.890411 15.284018 -85.735630 1.473836 -2.046920 41.184709 -3.068708 -5.896878 -18.456226 0.582000 -0.000000 -59.398300
13.726318 15.598299 2.989826 -159.572944 -86.907097 -139.057877 -8.389792 -1.363194 3.460141 -3.274377 -12.924118 -87.342963 -1.391591 2.098372 45.650496 4.492025 11.885121 -23.594147 -2.626800 -0.000000 -42.337600 7.306649 1.203268 5.513827 -1.759936 15.344784 -88.797394 1.203679 -2.433634 44.747296 -3.212626 -6.037409 -19.822542 0.808400 -0.000000 -58.758300
13.714491 15.431744 2.990177 -164.448025 -87.056558 -133.173674 -8.366135 -1.474264 3.575922 -2.932395 -13.585102 -90.045470 -1.208621 2.415552 48.736241 4.652444 12.107039 -24.865212 -2.975100 0.000001 -41.718900 7.312733 1.351349 5.612855 -2.625220 15.281390 -91.777826 0.929792 -2.822948 48.335260 -3.352203 -6.189429 -21.223962 1.049700 0.000000 -58.044400
13.702143 15.257696 2.990449 -170.766592 -87.248287 -125.908602 -8.328222 -1.604787 3.681788 -2.578272 -14.293914 -92.671966 -1.006836 2.721477 51.844948 4.809475 12.347718 -26.140549 -3.340800 0.000001 -41.056800 7.334529 1.514015 5.687884 -3.468135 15.095435 -94.650110 0.654471 -3.214712 51.924409 -3.486736 -6.355226 -22.652186 1.305000 0.000000 -57.275500
13.689057 15.077181 2.990702 -179.228269 -87.468371 -116.567695 -8.268311 -1.755147 3.773906 -2.222312 -15.050641 -95.205478 -0.790212 3.013318 54.958241 4.959542 12.598021 -27.405000 -3.719200 0.000000 -40.393300 7.379386 1.686876 5.739920 -4.277022 14.785983 -97.397443 0.377946 -3.610069 55.494906 -3.614991 -6.535112 -24.097052 1.572800 0.000000 -56.475700
13.674896 14.891468 2.991305 169.768638 -87.689799 -104.756334 -8.178648 -1.918899 3.849540 -1.864243 -15.837693 -97.633885 -0.561922 3.290694 58.060275 5.099193 12.847148 -28.643583 -4.103300 0.000000 -39.775100 7.454741 1.869887 5.771115 -5.029320 14.373824 -99.997240 0.100473 -4.007205 59.017213 -3.736300 -6.732845 -25.540264 1.850600 -0.000001 -55.683100
13.659309 14.701771 2.992362 156.063242 -87.874916 -90.312757 -8.053060 -2.079273 3.907322 -1.506892 -16.639301 -99.953195 -0.323946 3.553655 61.134747 5.227636 13.090670 -29.842710 -4.487001 -0.000000 -39.242001 7.566606 2.073040 5.784637 -5.713848 13.882099 -102.438207 -0.178506 -4.404661 62.470378 -3.848810 -6.947682 -26.963895 2.135600 0.000001 -54.932800
13.641997 14.509498 2.994000 140.739610 -87.978310 -74.321382 -7.902247 -2.210877 3.947851 -1.155101 -17.427088 -102.164725 -0.075934 3.804076 64.165612 5.344945 13.328052 -30.992516 -4.864499 0.000000 -38.825600 7.704145 2.314484 5.784215 -6.327454 13.348488 -104.711539 -0.458453 -4.798600 65.834385 -3.951365 -7.177563 -28.348045 2.425100 -0.000000 -54.261500
13.622595 14.315946 2.996479 126.078467 -87.973008 -59.059085 -7.757265 -2.306001 3.972970 -0.816701 -18.167467 -104.269511 0.182592 4.045910 67.140458 5.449568 13.558454 -32.087811 -5.231100 0.000001 -38.542900 7.836937 2.595647 5.772877 -6.873192 12.815995 -106.813120 -0.738938 -5.182063 69.088795 -4.045982 -7.422305 -29.675985 2.717599 0.000000 -53.690401
13.600608 14.122336 2.999329 113.537193 -87.835658 -45.978496 -7.633417 -2.372165 3.989294 -0.516822 -18.893895 -106.255035 0.449377 4.275612 70.031781 5.545193 13.798729 -33.121159 -5.588200 0.000001 -38.405600 7.952338 2.905035 5.756950 -7.390592 12.260457 -108.761555 -1.025393 -5.554242 72.238154 -4.132351 -7.676376 -30.935382 3.009600 0.000000 -53.271100
13.563318 13.914358 3.021685 86.531408 -87.824260 -18.127390 -7.499040 -2.330405 4.313704 0.607909 -19.855820 -108.911956 0.817139 4.382981 72.808536 5.633026 14.023186 -33.851242 -5.826500 0.000000 -38.833400 8.123282 3.226972 5.816416 -7.452218 11.578629 -110.971136 -1.252512 -6.038745 75.263011 -4.263084 -8.003637 -32.229503 3.345000 0.000000 -52.790700
13.535759 13.724253 3.026160 82.105417 -87.457560 -13.275225 -7.440637 -2.409633 4.313837 0.853037 -20.497290 -110.660170 1.086731 4.600193 75.524130 5.706714 14.268860 -34.774910 -6.162500 0.000000 -38.933300 8.178200 3.515429 5.798365 -7.906455 11.045474 -112.631009 -1.563111 -6.369822 78.159709 -4.345508 -8.296122 -33.341620 3.641800 0.000000 -52.642400
13.505339 13.537799 3.030967 78.899792 -87.069842 -9.703901 -7.388924 -2.504565 4.306219 1.073003 -21.120323 -112.271183 1.357093 4.806231 78.142785 5.775694 14.528569 -35.654491 -6.496999 -0.000000 -39.113799 8.229420 3.780167 5.783832 -8.326921 10.516477 -114.145776 -1.883569 -6.680825 80.926871 -4.426129 -8.609215 -34.390608 3.941300 0.000001 -52.618700
13.471843 13.355813 3.035900 76.564439 -86.677756 -7.058705 -7.341896 -2.610903 4.294254 1.270902 -21.718700 -113.748965 1.627584 5.001348 80.661416 5.843275 14.807920 -36.502319 -6.835600 0.000000 -39.345800 8.279091 4.022887 5.776935 -8.720756 10.006267 -115.522347 -2.212750 -6.969347 83.563107 -4.506772 -8.945984 -35.381848 4.245600 0.000001 -52.710001
13.435558 13.179515 3.041368 74.617204 -86.317394 -4.863520 -7.301209 -2.727620 4.278284 1.461918 -22.258737 -115.092964 1.898597 5.187623 83.085754 5.908826 15.101154 -37.333488 -7.181000 -0.000000 -39.594300 8.323873 4.244213 5.773208 -9.065218 9.555186 -116.747726 -2.545350 -7.232213 86.060323 -4.591217 -9.312602 -36.329399 4.560899 0.000000 -52.868100
13.396447 13.009657 3.046817 73.039548 -85.981151 -3.100208 -7.265788 -2.850855 4.259628 1.631401 -22.754461 -116.292822 2.167762 5.363925 85.408370 5.974851 15.411704 -38.158214 -7.538300 0.000000 -39.837800 8.366035 4.446425 5.773094 -9.370399 9.154042 -117.822841 -2.879403 -7.469985 88.424310 -4.679159 -9.705309 -37.243347 4.888701 0.000000 -53.080900
13.354822 12.847251 3.052128 71.709909 -85.673496 -1.653106 -7.235960 -2.978503 4.238414 1.773887 -23.203934 -117.341265 2.433316 5.530403 87.626161 6.041307 15.735689 -38.983430 -7.909000 0.000000 -40.064000 8.405421 4.630753 5.773561 -9.630853 8.808340 -118.741572 -3.211215 -7.682859 90.655431 -4.771181 -10.122943 -38.132489 5.231500 0.000000 -53.328100
